<svg xmlns="http://www.w3.org/2000/svg" xmlns:xlink="http://www.w3.org/1999/xlink" width="500" zoomAndPan="magnify" viewBox="0 0 375 374.999991" height="500" preserveAspectRatio="xMidYMid meet" version="1.0"><defs><g/></defs><g fill="#ba2532" fill-opacity="1"><g transform="translate(34.709768, 214.314635)"><g><path d="M 4.953125 -68.171875 L 29.34375 -68.171875 C 35.894531 -68.171875 41.234375 -66.421875 45.359375 -62.921875 C 49.492188 -59.429688 51.5625 -54.4375 51.5625 -47.9375 C 51.5625 -42.914062 50.304688 -38.710938 47.796875 -35.328125 C 45.296875 -31.941406 41.894531 -29.5625 37.59375 -28.1875 L 61.078125 0 L 41.328125 0 L 20.5 -26.9375 L 20.5 0 L 4.953125 0 Z M 20.5 -37.9375 L 22.3125 -37.9375 C 23.75 -37.9375 24.960938 -37.960938 25.953125 -38.015625 C 26.941406 -38.066406 28.066406 -38.257812 29.328125 -38.59375 C 30.597656 -38.925781 31.617188 -39.394531 32.390625 -40 C 33.160156 -40.601562 33.820312 -41.484375 34.375 -42.640625 C 34.925781 -43.796875 35.203125 -45.203125 35.203125 -46.859375 C 35.203125 -48.515625 34.925781 -49.921875 34.375 -51.078125 C 33.820312 -52.234375 33.160156 -53.113281 32.390625 -53.71875 C 31.617188 -54.320312 30.597656 -54.785156 29.328125 -55.109375 C 28.066406 -55.441406 26.941406 -55.632812 25.953125 -55.6875 C 24.960938 -55.75 23.75 -55.78125 22.3125 -55.78125 L 20.5 -55.78125 Z M 20.5 -37.9375 "/></g></g></g><g fill="#ba2532" fill-opacity="1"><g transform="translate(91.056767, 214.314635)"><g><path d="M 7.84375 -5.25 C 3.882812 -9.570312 1.90625 -14.875 1.90625 -21.15625 C 1.90625 -27.4375 3.882812 -32.753906 7.84375 -37.109375 C 11.8125 -41.460938 16.851562 -43.640625 22.96875 -43.640625 C 28.59375 -43.640625 33.222656 -41.875 36.859375 -38.34375 L 36.859375 -42.390625 L 51.484375 -42.390625 L 51.484375 0 L 37.015625 0 L 37.015625 -4.796875 L 36.859375 -4.796875 C 33.222656 -0.773438 28.59375 1.234375 22.96875 1.234375 C 16.851562 1.234375 11.8125 -0.925781 7.84375 -5.25 Z M 20.28125 -28.34375 C 18.382812 -26.46875 17.4375 -24.070312 17.4375 -21.15625 C 17.4375 -18.238281 18.34375 -15.851562 20.15625 -14 C 21.976562 -12.15625 24.378906 -11.234375 27.359375 -11.234375 C 30.222656 -11.234375 32.578125 -12.171875 34.421875 -14.046875 C 36.265625 -15.921875 37.1875 -18.289062 37.1875 -21.15625 C 37.1875 -24.070312 36.234375 -26.46875 34.328125 -28.34375 C 32.429688 -30.21875 30.109375 -31.15625 27.359375 -31.15625 C 24.546875 -31.15625 22.1875 -30.21875 20.28125 -28.34375 Z M 20.28125 -28.34375 "/></g></g></g><g fill="#ba2532" fill-opacity="1"><g transform="translate(144.677274, 214.314635)"><g><path d="M 4.953125 0 L 4.953125 -42.390625 L 19.578125 -42.390625 L 19.578125 -37.9375 L 19.75 -37.9375 C 23.550781 -41.738281 27.601562 -43.640625 31.90625 -43.640625 C 34 -43.640625 36.078125 -43.363281 38.140625 -42.8125 C 40.203125 -42.257812 42.179688 -41.40625 44.078125 -40.25 C 45.984375 -39.09375 47.53125 -37.453125 48.71875 -35.328125 C 49.90625 -33.203125 50.5 -30.738281 50.5 -27.9375 L 50.5 0 L 35.859375 0 L 35.859375 -23.96875 C 35.859375 -26.164062 35.15625 -28.09375 33.75 -29.75 C 32.351562 -31.40625 30.523438 -32.234375 28.265625 -32.234375 C 26.054688 -32.234375 24.054688 -31.378906 22.265625 -29.671875 C 20.472656 -27.960938 19.578125 -26.0625 19.578125 -23.96875 L 19.578125 0 Z M 4.953125 0 "/></g></g></g><g fill="#ba2532" fill-opacity="1"><g transform="translate(196.480086, 214.314635)"><g><path d="M 3.0625 10.40625 L 15.046875 4.546875 C 17.242188 8.179688 21.070312 10 26.53125 10 C 29.0625 10 31.414062 9.1875 33.59375 7.5625 C 35.769531 5.9375 36.859375 3.441406 36.859375 0.078125 L 36.859375 -3.0625 C 34.265625 -0.195312 29.632812 1.234375 22.96875 1.234375 C 16.851562 1.234375 11.8125 -0.925781 7.84375 -5.25 C 3.882812 -9.570312 1.90625 -14.875 1.90625 -21.15625 C 1.90625 -27.4375 3.882812 -32.753906 7.84375 -37.109375 C 11.8125 -41.460938 16.851562 -43.640625 22.96875 -43.640625 C 28.425781 -43.640625 32.972656 -41.957031 36.609375 -38.59375 L 36.859375 -38.59375 L 36.859375 -42.390625 L 51.484375 -42.390625 L 51.484375 1.15625 C 51.484375 8.039062 49.195312 13.351562 44.625 17.09375 C 40.050781 20.84375 34.019531 22.71875 26.53125 22.71875 C 14.40625 22.71875 6.582031 18.613281 3.0625 10.40625 Z M 20.28125 -28.34375 C 18.382812 -26.46875 17.4375 -24.070312 17.4375 -21.15625 C 17.4375 -18.238281 18.34375 -15.851562 20.15625 -14 C 21.976562 -12.15625 24.378906 -11.234375 27.359375 -11.234375 C 30.222656 -11.234375 32.578125 -12.171875 34.421875 -14.046875 C 36.265625 -15.921875 37.1875 -18.289062 37.1875 -21.15625 C 37.1875 -24.070312 36.234375 -26.46875 34.328125 -28.34375 C 32.429688 -30.21875 30.109375 -31.15625 27.359375 -31.15625 C 24.546875 -31.15625 22.1875 -30.21875 20.28125 -28.34375 Z M 20.28125 -28.34375 "/></g></g></g><g fill="#ba2532" fill-opacity="1"><g transform="translate(250.100585, 214.314635)"><g><path d="M 47.84375 -19.171875 L 17.109375 -19.171875 C 17.109375 -16.191406 18.070312 -13.984375 20 -12.546875 C 21.925781 -11.117188 24.019531 -10.40625 26.28125 -10.40625 C 28.644531 -10.40625 30.515625 -10.722656 31.890625 -11.359375 C 33.273438 -11.992188 34.847656 -13.25 36.609375 -15.125 L 47.1875 -9.828125 C 42.78125 -2.453125 35.453125 1.234375 25.203125 1.234375 C 18.816406 1.234375 13.335938 -0.953125 8.765625 -5.328125 C 4.191406 -9.710938 1.90625 -14.988281 1.90625 -21.15625 C 1.90625 -27.320312 4.191406 -32.609375 8.765625 -37.015625 C 13.335938 -41.429688 18.816406 -43.640625 25.203125 -43.640625 C 31.921875 -43.640625 37.390625 -41.695312 41.609375 -37.8125 C 45.828125 -33.925781 47.9375 -28.375 47.9375 -21.15625 C 47.9375 -20.164062 47.90625 -19.503906 47.84375 -19.171875 Z M 17.515625 -27.265625 L 33.640625 -27.265625 C 33.304688 -29.472656 32.4375 -31.164062 31.03125 -32.34375 C 29.625 -33.53125 27.820312 -34.125 25.625 -34.125 C 23.195312 -34.125 21.265625 -33.488281 19.828125 -32.21875 C 18.398438 -30.957031 17.628906 -29.304688 17.515625 -27.265625 Z M 17.515625 -27.265625 "/></g></g></g><g fill="#ba2532" fill-opacity="1"><g transform="translate(297.111392, 214.314635)"><g><path d="M 4.953125 0 L 4.953125 -42.390625 L 19.578125 -42.390625 L 19.578125 -36.28125 L 19.75 -36.28125 C 19.863281 -36.5 20.039062 -36.769531 20.28125 -37.09375 C 20.53125 -37.425781 21.066406 -38.003906 21.890625 -38.828125 C 22.722656 -39.660156 23.609375 -40.40625 24.546875 -41.0625 C 25.484375 -41.726562 26.691406 -42.320312 28.171875 -42.84375 C 29.660156 -43.375 31.175781 -43.640625 32.71875 -43.640625 C 34.320312 -43.640625 35.894531 -43.414062 37.4375 -42.96875 C 38.976562 -42.53125 40.109375 -42.09375 40.828125 -41.65625 L 41.984375 -40.984375 L 35.859375 -28.59375 C 34.046875 -30.132812 31.515625 -30.90625 28.265625 -30.90625 C 26.503906 -30.90625 24.988281 -30.519531 23.71875 -29.75 C 22.445312 -28.976562 21.550781 -28.039062 21.03125 -26.9375 C 20.507812 -25.832031 20.132812 -24.894531 19.90625 -24.125 C 19.6875 -23.351562 19.578125 -22.75 19.578125 -22.3125 L 19.578125 0 Z M 4.953125 0 "/></g></g></g><path stroke-linecap="butt" transform="matrix(1.157059, 0, 0, 1.157059, 11.904241, 234.062197)" fill="none" stroke-linejoin="miter" d="M -0.00163999 5.000143 L 84.432547 5.000143 " stroke="#292929" stroke-width="10" stroke-opacity="1" stroke-miterlimit="4"/><path stroke-linecap="butt" transform="matrix(0, 1.157059, -1.157059, 0, 23.468896, 146.752548)" fill="none" stroke-linejoin="miter" d="M 0.00117391 5.000008 L 82.463767 5.000008 " stroke="#292929" stroke-width="10" stroke-opacity="1" stroke-miterlimit="4"/><path stroke-linecap="butt" transform="matrix(-1.157059, 0, 0, -1.157059, 363.089189, 143.318237)" fill="none" stroke-linejoin="miter" d="M -0.000566171 5.001464 L 84.433621 5.001464 " stroke="#292929" stroke-width="10" stroke-opacity="1" stroke-miterlimit="4"/><path stroke-linecap="butt" transform="matrix(0, -1.157059, 1.157059, 0, 351.524513, 230.62787)" fill="none" stroke-linejoin="miter" d="M -0.000895888 4.998951 L 82.461698 4.998951 " stroke="#292929" stroke-width="10" stroke-opacity="1" stroke-miterlimit="4"/><g fill="#000000" fill-opacity="1"><g transform="translate(13.680906, 141.192222)"><g><path d="M 3.09375 -17.609375 L 3.09375 -24.171875 L 9.171875 -24.171875 L 9.171875 -17.609375 L 12.875 -17.609375 L 12.875 -12.96875 L 9.171875 -12.96875 L 9.171875 -7.375 C 9.171875 -5.75 9.625 -4.9375 10.53125 -4.9375 C 10.757812 -4.9375 11 -4.984375 11.25 -5.078125 C 11.507812 -5.171875 11.707031 -5.265625 11.84375 -5.359375 L 12.046875 -5.5 L 13.5625 -0.578125 C 12.257812 0.148438 10.769531 0.515625 9.09375 0.515625 C 7.945312 0.515625 6.960938 0.316406 6.140625 -0.078125 C 5.316406 -0.484375 4.691406 -1.023438 4.265625 -1.703125 C 3.847656 -2.378906 3.546875 -3.085938 3.359375 -3.828125 C 3.179688 -4.566406 3.09375 -5.363281 3.09375 -6.21875 L 3.09375 -12.96875 L 0.546875 -12.96875 L 0.546875 -17.609375 Z M 3.09375 -17.609375 "/></g></g></g><g fill="#000000" fill-opacity="1"><g transform="translate(26.074637, 141.192222)"><g><path d="M 2.0625 0 L 2.0625 -29.515625 L 8.140625 -29.515625 L 8.140625 -15.75 L 8.203125 -15.75 C 9.785156 -17.332031 11.46875 -18.125 13.25 -18.125 C 14.125 -18.125 14.988281 -18.007812 15.84375 -17.78125 C 16.695312 -17.550781 17.519531 -17.195312 18.3125 -16.71875 C 19.101562 -16.238281 19.742188 -15.554688 20.234375 -14.671875 C 20.722656 -13.796875 20.96875 -12.773438 20.96875 -11.609375 L 20.96875 0 L 14.90625 0 L 14.90625 -9.953125 C 14.90625 -10.867188 14.609375 -11.671875 14.015625 -12.359375 C 13.429688 -13.046875 12.671875 -13.390625 11.734375 -13.390625 C 10.816406 -13.390625 9.988281 -13.035156 9.25 -12.328125 C 8.507812 -11.617188 8.140625 -10.828125 8.140625 -9.953125 L 8.140625 0 Z M 2.0625 0 "/></g></g></g><g fill="#000000" fill-opacity="1"><g transform="translate(47.600585, 141.192222)"><g><path d="M 19.875 -7.96875 L 7.109375 -7.96875 C 7.109375 -6.726562 7.507812 -5.8125 8.3125 -5.21875 C 9.113281 -4.625 9.984375 -4.328125 10.921875 -4.328125 C 11.898438 -4.328125 12.675781 -4.457031 13.25 -4.71875 C 13.820312 -4.976562 14.472656 -5.5 15.203125 -6.28125 L 19.59375 -4.078125 C 17.769531 -1.015625 14.726562 0.515625 10.46875 0.515625 C 7.8125 0.515625 5.535156 -0.390625 3.640625 -2.203125 C 1.742188 -4.023438 0.796875 -6.21875 0.796875 -8.78125 C 0.796875 -11.34375 1.742188 -13.539062 3.640625 -15.375 C 5.535156 -17.207031 7.8125 -18.125 10.46875 -18.125 C 13.257812 -18.125 15.53125 -17.316406 17.28125 -15.703125 C 19.03125 -14.085938 19.90625 -11.78125 19.90625 -8.78125 C 19.90625 -8.375 19.894531 -8.101562 19.875 -7.96875 Z M 7.28125 -11.328125 L 13.96875 -11.328125 C 13.832031 -12.242188 13.472656 -12.945312 12.890625 -13.4375 C 12.304688 -13.925781 11.554688 -14.171875 10.640625 -14.171875 C 9.628906 -14.171875 8.828125 -13.90625 8.234375 -13.375 C 7.640625 -12.851562 7.320312 -12.171875 7.28125 -11.328125 Z M 7.28125 -11.328125 "/></g></g></g><g fill="#292929" fill-opacity="1"><g transform="translate(299.369634, 247.579424)"><g><path d="M 1.640625 0 L 1.640625 -23.453125 L 6.46875 -23.453125 L 6.46875 -12.515625 L 6.515625 -12.515625 C 7.765625 -13.765625 9.101562 -14.390625 10.53125 -14.390625 C 11.21875 -14.390625 11.898438 -14.296875 12.578125 -14.109375 C 13.265625 -13.929688 13.921875 -13.648438 14.546875 -13.265625 C 15.171875 -12.890625 15.675781 -12.351562 16.0625 -11.65625 C 16.457031 -10.957031 16.65625 -10.144531 16.65625 -9.21875 L 16.65625 0 L 11.828125 0 L 11.828125 -7.90625 C 11.828125 -8.632812 11.59375 -9.269531 11.125 -9.8125 C 10.664062 -10.363281 10.066406 -10.640625 9.328125 -10.640625 C 8.597656 -10.640625 7.9375 -10.351562 7.34375 -9.78125 C 6.757812 -9.21875 6.46875 -8.59375 6.46875 -7.90625 L 6.46875 0 Z M 1.640625 0 "/></g></g></g><g fill="#292929" fill-opacity="1"><g transform="translate(316.46766, 247.579424)"><g><path d="M 6.1875 -13.984375 L 6.1875 -7.328125 C 6.1875 -5.953125 6.394531 -4.972656 6.8125 -4.390625 C 7.226562 -3.804688 7.9375 -3.515625 8.9375 -3.515625 C 9.9375 -3.515625 10.644531 -3.804688 11.0625 -4.390625 C 11.488281 -4.972656 11.703125 -5.953125 11.703125 -7.328125 L 11.703125 -13.984375 L 16.515625 -13.984375 L 16.515625 -6.15625 C 16.515625 -3.832031 15.910156 -2.15625 14.703125 -1.125 C 13.492188 -0.101562 11.570312 0.40625 8.9375 0.40625 C 6.300781 0.40625 4.378906 -0.101562 3.171875 -1.125 C 1.960938 -2.15625 1.359375 -3.832031 1.359375 -6.15625 L 1.359375 -13.984375 Z M 6.1875 -13.984375 "/></g></g></g><g fill="#292929" fill-opacity="1"><g transform="translate(333.42935, 247.579424)"><g><path d="M 16.03125 -12.234375 C 17.34375 -10.804688 18 -9.054688 18 -6.984375 C 18 -4.910156 17.34375 -3.160156 16.03125 -1.734375 C 14.71875 -0.304688 13.054688 0.40625 11.046875 0.40625 C 9.191406 0.40625 7.664062 -0.253906 6.46875 -1.578125 L 6.40625 -1.578125 L 6.40625 0 L 1.640625 0 L 1.640625 -23.453125 L 6.46875 -23.453125 L 6.46875 -12.65625 C 7.664062 -13.8125 9.191406 -14.390625 11.046875 -14.390625 C 13.054688 -14.390625 14.71875 -13.671875 16.03125 -12.234375 Z M 11.96875 -4.609375 C 12.570312 -5.222656 12.875 -6.007812 12.875 -6.96875 C 12.875 -7.9375 12.554688 -8.726562 11.921875 -9.34375 C 11.296875 -9.96875 10.519531 -10.28125 9.59375 -10.28125 C 8.6875 -10.28125 7.921875 -9.96875 7.296875 -9.34375 C 6.671875 -8.726562 6.359375 -7.941406 6.359375 -6.984375 C 6.359375 -6.035156 6.660156 -5.25 7.265625 -4.625 C 7.867188 -4.007812 8.644531 -3.703125 9.59375 -3.703125 C 10.570312 -3.703125 11.363281 -4.003906 11.96875 -4.609375 Z M 11.96875 -4.609375 "/></g></g></g></svg>